<?xml version="1.0" encoding="UTF-8"?>
<svg version="1.1" xmlns="http://www.w3.org/2000/svg" width="500" height="500">
<path d="M0 0 C165 0 330 0 500 0 C500 165 500 330 500 500 C335 500 170 500 0 500 C0 335 0 170 0 0 Z " fill="#FEFEFE" transform="translate(0,0)"/>
<path d="M0 0 C0.73291763 -0.00335861 1.46583527 -0.00671722 2.22096252 -0.01017761 C4.61965681 -0.01959737 7.01828061 -0.02162626 9.41699219 -0.02270508 C11.10317004 -0.02592423 12.78934762 -0.02928878 14.4755249 -0.03279114 C18.00240729 -0.03876024 21.52926526 -0.04063336 25.05615234 -0.04003906 C29.54554303 -0.03993765 34.03477483 -0.05357867 38.52412796 -0.07081127 C42.00570374 -0.08200447 45.48724201 -0.08395602 48.96883392 -0.08342934 C50.62240902 -0.08459888 52.27598543 -0.08896205 53.92954254 -0.0967617 C70.14691117 -0.16609092 84.85853326 0.29177649 97.20214844 11.94604492 C106.57504518 22.19253204 106.53552474 34.74708293 106.54980469 47.95385742 C106.55625008 49.37053047 106.56297966 50.78720225 106.56997681 52.20387268 C106.58187764 55.1580819 106.58566491 58.11217479 106.58447266 61.06640625 C106.58426938 64.82294814 106.61161205 68.57873433 106.64601707 72.33509731 C106.66841633 75.25648831 106.67230632 78.17770076 106.6712532 81.09916878 C106.67358806 82.48285599 106.68228992 83.86654976 106.69791794 85.25015068 C106.82316802 97.47814323 104.86227212 108.03641125 96.21386719 117.14526367 C87.0714637 125.63745312 77.74590149 127.58873051 65.609375 127.81835938 C57.21147775 127.91489133 57.21147775 127.91489133 49.21386719 130.14526367 C48.01726081 132.01330685 48.01726081 132.01330685 47.21386719 134.14526367 C45.94294408 136.34874724 44.6554783 138.53217394 43.33886719 140.70776367 C42.99984375 141.28461914 42.66082031 141.86147461 42.31152344 142.45581055 C40.32553301 145.72929667 38.55632452 148.2171795 35.21386719 150.14526367 C31.77636719 150.64526367 31.77636719 150.64526367 28.21386719 150.14526367 C23.5362256 146.16143495 20.74818373 141.42167574 17.78417969 136.14135742 C15.54497113 132.42267178 13.54847134 130.11152442 9.28417969 128.59838867 C4.13630687 127.47168443 -1.18531002 127.70942918 -6.42871094 127.70581055 C-16.53369837 127.50244855 -25.44128647 124.25266886 -32.78613281 117.14526367 C-41.48139177 106.65862035 -43.39877768 96.21337112 -43.28222656 82.86401367 C-43.28238195 81.40010506 -43.28387741 79.93619605 -43.28663635 78.47229004 C-43.28801281 75.41957174 -43.27559029 72.36732757 -43.25268555 69.31469727 C-43.22430278 65.42808934 -43.22704821 61.54226761 -43.23977566 57.6556015 C-43.24677535 54.63728274 -43.23889504 51.61914141 -43.22651863 48.60084534 C-43.22204564 47.16891666 -43.22163042 45.73696866 -43.22558403 44.30503845 C-43.24611501 30.33057029 -41.11968195 20.80260164 -31.78613281 10.14526367 C-22.6510703 1.45193532 -12.21632602 0.03544017 0 0 Z " fill="#936EFF" transform="translate(113.7861328125,174.854736328125)"/>
<path d="M0 0 C1.32 0 2.64 0 4 0 C4.33 2.31 4.66 4.62 5 7 C5.66 6.01 6.32 5.02 7 4 C7.99 4 8.98 4 10 4 C9.4740625 4.8353125 9.4740625 4.8353125 8.9375 5.6875 C7.75722231 8.59885163 8.08613535 10.02993989 9 13 C9.99 14.485 9.99 14.485 11 16 C9.68 16 8.36 16 7 16 C6.34 15.01 5.68 14.02 5 13 C4.67 13.99 4.34 14.98 4 16 C2.68 16 1.36 16 0 16 C-0.33 15.34 -0.66 14.68 -1 14 C-1.66 14.66 -2.32 15.32 -3 16 C-6 16.25 -6 16.25 -9 16 C-11 14 -11 14 -11.3125 10.5625 C-11 7 -11 7 -9.875 5 C-7.042116 3.48912853 -5.01987426 4.21220672 -2 5 C-1.67 5.33 -1.34 5.66 -1 6 C-0.67 4.02 -0.34 2.04 0 0 Z " fill="#ECECEC" transform="translate(289,229)"/>
<path d="M0 0 C2.4375 1.5625 2.4375 1.5625 4 4 C4.56288002 7.94016013 4.60396028 10.05782196 2.4375 13.4375 C-0.96719488 15.61999672 -3.03430012 15.63734462 -7 15 C-9.5 12.9375 -9.5 12.9375 -11 10 C-10.93977486 6.50694211 -10.63658168 4.09633511 -8.875 1.0625 C-5.81547541 -0.6712306 -3.43182475 -0.42145216 0 0 Z " fill="#F9F7FF" transform="translate(149,235)"/>
<path d="M0 0 C2.4375 1.5625 2.4375 1.5625 4 4 C4.56158278 7.93107944 4.55619196 10.0730134 2.5 13.5 C-0.68663826 15.41198295 -2.57119315 15.28379347 -6.15625 14.6015625 C-8 14 -8 14 -10.0625 12.375 C-11.42801951 8.91568392 -10.90602977 6.55940268 -10 3 C-7.67133148 -1.01048467 -4.26353269 -0.52359173 0 0 Z " fill="#FAF8FF" transform="translate(179,235)"/>
<path d="M0 0 C2.4375 1.5625 2.4375 1.5625 4 4 C4.56158278 7.93107944 4.55619196 10.0730134 2.5 13.5 C-0.68663826 15.41198295 -2.57119315 15.28379347 -6.15625 14.6015625 C-8 14 -8 14 -10.0625 12.375 C-11.42801951 8.91568392 -10.90602977 6.55940268 -10 3 C-7.67133148 -1.01048467 -4.26353269 -0.52359173 0 0 Z " fill="#FAF8FF" transform="translate(119,235)"/>
<path d="M0 0 C1.8125 1.0625 1.8125 1.0625 3 3 C3.3125 6.5625 3.3125 6.5625 3 10 C1 12 1 12 -1.9375 12.3125 C-5 12 -5 12 -6.875 10.875 C-8.52854531 8.11909116 -8.39365568 6.14924548 -8 3 C-5.90534242 -0.30735407 -3.75951639 -0.56392746 0 0 Z " fill="#252525" transform="translate(272,233)"/>
<path d="M0 0 C2.375 -0.125 2.375 -0.125 5 0 C7.49505962 2.49505962 7.35948376 3.67328888 7.625 7.125 C7.69976562 8.03507813 7.77453125 8.94515625 7.8515625 9.8828125 C7.90054687 10.58148438 7.94953125 11.28015625 8 12 C6.54207116 12.05399736 5.08357288 12.09279177 3.625 12.125 C2.81289063 12.14820313 2.00078125 12.17140625 1.1640625 12.1953125 C-1 12 -1 12 -3 10 C-2.625 7.875 -2.625 7.875 -2 6 C-0.02 5.67 1.96 5.34 4 5 C4 4.34 4 3.68 4 3 C2.02 3.33 0.04 3.66 -2 4 C-1.34 2.68 -0.68 1.36 0 0 Z " fill="#222222" transform="translate(353,233)"/>
<path d="M0 0 C0.99 0 1.98 0 3 0 C3.33 1.32 3.66 2.64 4 4 C4.804375 4.144375 5.60875 4.28875 6.4375 4.4375 C9 5 9 5 10 6 C10.07205511 7.68608966 10.08386068 9.37500659 10.0625 11.0625 C10.05347656 11.98160156 10.04445313 12.90070313 10.03515625 13.84765625 C10.02355469 14.55792969 10.01195312 15.26820313 10 16 C9.01 16 8.02 16 7 16 C7 13.03 7 10.06 7 7 C5.68 7 4.36 7 3 7 C3 9.97 3 12.94 3 16 C2.01 16 1.02 16 0 16 C0 10.72 0 5.44 0 0 Z " fill="#353535" transform="translate(338,229)"/>
<path d="M0 0 C1.670625 0.061875 1.670625 0.061875 3.375 0.125 C3.705 1.115 4.035 2.105 4.375 3.125 C2.395 3.125 0.415 3.125 -1.625 3.125 C-1.625 3.785 -1.625 4.445 -1.625 5.125 C1.84 6.61 1.84 6.61 5.375 8.125 C5.5 10.5 5.5 10.5 5.375 13.125 C3.375 15.125 3.375 15.125 -0.125 15.3125 C-3.625 15.125 -3.625 15.125 -5.625 14.125 C-5.625 13.135 -5.625 12.145 -5.625 11.125 C-2.985 11.455 -0.345 11.785 2.375 12.125 C2.375 11.135 2.375 10.145 2.375 9.125 C0.065 8.465 -2.245 7.805 -4.625 7.125 C-5.25 4.75 -5.25 4.75 -5.625 2.125 C-3.625 0.125 -3.625 0.125 0 0 Z " fill="#141414" transform="translate(256.625,229.875)"/>
<path d="M0 0 C0.66 1.32 1.32 2.64 2 4 C-0.64 3.67 -3.28 3.34 -6 3 C-6.38063221 5.3260857 -6.71269945 7.66055264 -7 10 C-5.95509265 11.2678956 -5.95509265 11.2678956 -3.625 11.125 C-0.88906952 11.11343738 -0.88906952 11.11343738 2 10 C1.125 13.875 1.125 13.875 0 15 C-3.3125 15.375 -3.3125 15.375 -7 15 C-9.97118368 12.40973731 -10.88008526 10.83940315 -11.4375 6.9375 C-10.31595076 -0.59290207 -6.71067711 -0.4400444 0 0 Z " fill="#181818" transform="translate(333,230)"/>
<path d="M0 0 C1 1 1 1 1.0625 3.5625 C1.041875 4.366875 1.02125 5.17125 1 6 C-1.31 6 -3.62 6 -6 6 C-5.67 6.66 -5.34 7.32 -5 8 C-3.02 8 -1.04 8 1 8 C0.01 9.485 0.01 9.485 -1 11 C-4 11.3125 -4 11.3125 -7 11 C-9 9 -9 9 -9.3125 5.5625 C-9 2 -9 2 -7.875 0 C-5.042116 -1.51087147 -3.01987426 -0.78779328 0 0 Z " fill="#0E0E0E" transform="translate(310,234)"/>
<path d="M0 0 C0.99 0 1.98 0 3 0 C3.33 2.31 3.66 4.62 4 7 C4.66 6.01 5.32 5.02 6 4 C6.99 4 7.98 4 9 4 C8.649375 4.556875 8.29875 5.11375 7.9375 5.6875 C6.75722231 8.59885163 7.08613535 10.02993989 8 13 C8.99 14.485 8.99 14.485 10 16 C8.68 16 7.36 16 6 16 C5.34 15.01 4.68 14.02 4 13 C3.67 13.99 3.34 14.98 3 16 C2.01 16 1.02 16 0 16 C0 10.72 0 5.44 0 0 Z " fill="#181818" transform="translate(290,229)"/>
<path d="M0 0 C0 0.99 0 1.98 0 3 C-2.97 2.505 -2.97 2.505 -6 2 C-5.67 3.98 -5.34 5.96 -5 8 C-4.01 8.33 -3.02 8.66 -2 9 C-2 8.34 -2 7.68 -2 7 C-1.01 7.33 -0.02 7.66 1 8 C0.01 9.485 0.01 9.485 -1 11 C-4 11.3125 -4 11.3125 -7 11 C-9 9 -9 9 -9.3125 5.5625 C-9 2 -9 2 -7.875 0 C-5.06863762 -1.49672661 -2.99840718 -0.73294398 0 0 Z " fill="#121212" transform="translate(287,234)"/>
<path d="M0 0 C0.99 0 1.98 0 3 0 C3 0.99 3 1.98 3 3 C3.99 3 4.98 3 6 3 C6 3.66 6 4.32 6 5 C5.01 5 4.02 5 3 5 C3 6.98 3 8.96 3 11 C3.99 11 4.98 11 6 11 C6 11.99 6 12.98 6 14 C4.35 14 2.7 14 1 14 C-0.4783226 11.04335481 -0.06032783 8.25770263 0 5 C-0.66 5 -1.32 5 -2 5 C-2 4.01 -2 3.02 -2 2 C-1.34 2 -0.68 2 0 2 C0 1.34 0 0.68 0 0 Z " fill="#1B1B1B" transform="translate(314,231)"/>
<path d="M0 0 C0.99 0 1.98 0 3 0 C3 0.66 3 1.32 3 2 C3.99 2 4.98 2 6 2 C6 2.99 6 3.98 6 5 C5.01 5 4.02 5 3 5 C3 7.31 3 9.62 3 12 C3.99 12 4.98 12 6 12 C6 12.66 6 13.32 6 14 C4.33388095 14.042721 2.66617115 14.04063832 1 14 C0 13 0 13 -0.09765625 11.15234375 C-0.06510417 9.1015625 -0.03255208 7.05078125 0 5 C-0.66 5 -1.32 5 -2 5 C-2 4.34 -2 3.68 -2 3 C-1.34 3 -0.68 3 0 3 C0 2.01 0 1.02 0 0 Z " fill="#252525" transform="translate(364,231)"/>
<path d="M0 0 C0.66 0 1.32 0 2 0 C2 1.98 2 3.96 2 6 C2.66 6.33 3.32 6.66 4 7 C3.67 9.97 3.34 12.94 3 16 C2.01 16 1.02 16 0 16 C0 10.72 0 5.44 0 0 Z " fill="#141414" transform="translate(338,229)"/>
<path d="M0 0 C-0.33 1.32 -0.66 2.64 -1 4 C0.65 3.67 2.3 3.34 4 3 C4.66 4.32 5.32 5.64 6 7 C4.54207116 7.05399736 3.08357288 7.09279177 1.625 7.125 C0.81289063 7.14820313 0.00078125 7.17140625 -0.8359375 7.1953125 C-3 7 -3 7 -5 5 C-4.75 2.9375 -4.75 2.9375 -4 1 C-2 0 -2 0 0 0 Z " fill="#1D1D1D" transform="translate(355,238)"/>
<path d="M0 0 C2.0625 0.4375 2.0625 0.4375 4 1 C4 2.65 4 4.3 4 6 C2.0625 6.5625 2.0625 6.5625 0 7 C-1 6 -1 6 -1.125 3.5 C-1 1 -1 1 0 0 Z " fill="#EBEBEB" transform="translate(268,236)"/>
<path d="M0 0 C2.00720923 0.28674418 4.0085944 0.61866701 6 1 C6 1.99 6 2.98 6 4 C3.03 3.505 3.03 3.505 0 3 C0 4.65 0 6.3 0 8 C-0.99 7.01 -1.98 6.02 -3 5 C-1.125 1.125 -1.125 1.125 0 0 Z " fill="#272727" transform="translate(281,233)"/>
<path d="M0 0 C2.97 0.495 2.97 0.495 6 1 C6.33 1.99 6.66 2.98 7 4 C4.69 4.33 2.38 4.66 0 5 C0 3.35 0 1.7 0 0 Z " fill="#6B6B6B" transform="translate(304,233)"/>
<path d="M0 0 C0.33 0 0.66 0 1 0 C1.33 1.98 1.66 3.96 2 6 C2.99 6.33 3.98 6.66 5 7 C5 7.66 5 8.32 5 9 C0.125 8.125 0.125 8.125 -1 7 C-1.125 4 -1.125 4 -1 1 C-0.67 0.67 -0.34 0.34 0 0 Z " fill="#020202" transform="translate(266,236)"/>
<path d="M0 0 C0.33 0 0.66 0 1 0 C1 2.31 1 4.62 1 7 C-0.98 7.33 -2.96 7.66 -5 8 C-5 7.01 -5 6.02 -5 5 C-3.68 4.67 -2.36 4.34 -1 4 C-0.67 2.68 -0.34 1.36 0 0 Z " fill="#818181" transform="translate(359,235)"/>
<path d="M0 0 C0.99 0.33 1.98 0.66 3 1 C3 2.98 3 4.96 3 7 C2.01 7 1.02 7 0 7 C0 4.69 0 2.38 0 0 Z " fill="#0C0C0C" transform="translate(345,238)"/>
<path d="M0 0 C0 0.99 0 1.98 0 3 C-2.31 3 -4.62 3 -7 3 C-7.33 3.66 -7.66 4.32 -8 5 C-8 3.68 -8 2.36 -8 1 C-2.25 0 -2.25 0 0 0 Z " fill="#151515" transform="translate(311,237)"/>
<path d="M0 0 C-0.3125 1.9375 -0.3125 1.9375 -1 4 C-1.99 4.33 -2.98 4.66 -4 5 C-4 4.34 -4 3.68 -4 3 C-4.99 2.67 -5.98 2.34 -7 2 C-2.25 0 -2.25 0 0 0 Z " fill="#2F2F2F" transform="translate(335,240)"/>
</svg>
